{
	"patcher" : 	{
		"fileversion" : 1,
		"appversion" : 		{
			"major" : 9,
			"minor" : 0,
			"revision" : 0,
			"architecture" : "x64",
			"modernui" : 1
		}
,
		"classnamespace" : "box",
		"rect" : [ 227.0, 176.0, 876.0, 855.0 ],
		"bglocked" : 0,
		"openinpresentation" : 1,
		"default_fontsize" : 12.0,
		"default_fontface" : 0,
		"default_fontname" : "Arial",
		"gridonopen" : 2,
		"gridsize" : [ 15.0, 15.0 ],
		"gridsnaponopen" : 1,
		"objectsnaponopen" : 1,
		"statusbarvisible" : 2,
		"toolbarvisible" : 1,
		"lefttoolbarpinned" : 0,
		"toptoolbarpinned" : 0,
		"righttoolbarpinned" : 0,
		"bottomtoolbarpinned" : 0,
		"toolbars_unpinned_last_save" : 0,
		"tallnewobj" : 0,
		"boxanimatetime" : 200,
		"enablehscroll" : 1,
		"enablevscroll" : 1,
		"devicewidth" : 0.0,
		"description" : "",
		"digest" : "",
		"tags" : "",
		"style" : "",
		"subpatcher_template" : "ShowGrid_template",
		"showrootpatcherontab" : 0,
		"showontab" : 0,
		"assistshowspatchername" : 0,
		"boxes" : [ 			{
				"box" : 				{
					"id" : "obj-8",
					"maxclass" : "newobj",
					"numinlets" : 0,
					"numoutlets" : 0,
					"patcher" : 					{
						"fileversion" : 1,
						"appversion" : 						{
							"major" : 9,
							"minor" : 0,
							"revision" : 0,
							"architecture" : "x64",
							"modernui" : 1
						}
,
						"classnamespace" : "box",
						"rect" : [ 0.0, 26.0, 876.0, 829.0 ],
						"bglocked" : 0,
						"openinpresentation" : 1,
						"default_fontsize" : 12.0,
						"default_fontface" : 0,
						"default_fontname" : "Arial",
						"gridonopen" : 2,
						"gridsize" : [ 15.0, 15.0 ],
						"gridsnaponopen" : 1,
						"objectsnaponopen" : 1,
						"statusbarvisible" : 2,
						"toolbarvisible" : 1,
						"lefttoolbarpinned" : 0,
						"toptoolbarpinned" : 0,
						"righttoolbarpinned" : 0,
						"bottomtoolbarpinned" : 0,
						"toolbars_unpinned_last_save" : 0,
						"tallnewobj" : 0,
						"boxanimatetime" : 200,
						"enablehscroll" : 1,
						"enablevscroll" : 1,
						"devicewidth" : 0.0,
						"description" : "",
						"digest" : "",
						"tags" : "",
						"style" : "",
						"subpatcher_template" : "ShowGrid_template",
						"showontab" : 1,
						"assistshowspatchername" : 0,
						"boxes" : [ 							{
								"box" : 								{
									"id" : "obj-31",
									"maxclass" : "newobj",
									"numinlets" : 1,
									"numoutlets" : 1,
									"outlettype" : [ "bang" ],
									"patching_rect" : [ 699.0, 612.0, 58.0, 22.0 ],
									"text" : "loadbang"
								}

							}
, 							{
								"box" : 								{
									"id" : "obj-30",
									"maxclass" : "message",
									"numinlets" : 2,
									"numoutlets" : 1,
									"outlettype" : [ "" ],
									"patching_rect" : [ 699.0, 639.0, 85.0, 22.0 ],
									"text" : "presentation 1"
								}

							}
, 							{
								"box" : 								{
									"id" : "obj-28",
									"maxclass" : "newobj",
									"numinlets" : 1,
									"numoutlets" : 2,
									"outlettype" : [ "", "" ],
									"patching_rect" : [ 699.0, 668.0, 67.0, 22.0 ],
									"save" : [ "#N", "thispatcher", ";", "#Q", "end", ";" ],
									"text" : "thispatcher"
								}

							}
, 							{
								"box" : 								{
									"id" : "obj-1",
									"maxclass" : "textbutton",
									"numinlets" : 1,
									"numoutlets" : 3,
									"outlettype" : [ "", "", "int" ],
									"outputmode" : 0,
									"parameter_enable" : 0,
									"patching_rect" : [ 46.0, 289.0, 126.0, 19.0 ],
									"presentation" : 1,
									"presentation_rect" : [ 36.0, 238.0, 131.0, 20.0 ],
									"text" : "fftz.cavoc27~",
									"texton" : "fftz.cavoc27~"
								}

							}
, 							{
								"box" : 								{
									"id" : "obj-15",
									"maxclass" : "textbutton",
									"numinlets" : 1,
									"numoutlets" : 3,
									"outlettype" : [ "", "", "int" ],
									"outputmode" : 0,
									"parameter_enable" : 0,
									"patching_rect" : [ 46.0, 260.0, 126.0, 19.0 ],
									"presentation" : 1,
									"presentation_rect" : [ 36.0, 205.0, 131.0, 20.0 ],
									"text" : "fftz.cavoc~",
									"texton" : "fftz.cavoc~"
								}

							}
, 							{
								"box" : 								{
									"id" : "obj-6",
									"maxclass" : "newobj",
									"numinlets" : 1,
									"numoutlets" : 1,
									"outlettype" : [ "" ],
									"patching_rect" : [ 525.0, 535.0, 51.0, 22.0 ],
									"text" : "pcontrol"
								}

							}
, 							{
								"box" : 								{
									"id" : "obj-5",
									"maxclass" : "newobj",
									"numinlets" : 1,
									"numoutlets" : 1,
									"outlettype" : [ "" ],
									"patching_rect" : [ 525.0, 505.0, 79.0, 22.0 ],
									"text" : "prepend help"
								}

							}
, 							{
								"box" : 								{
									"fontface" : 1,
									"fontname" : "Arial Rounded MT Bold",
									"fontsize" : 48.0,
									"id" : "obj-24",
									"maxclass" : "comment",
									"numinlets" : 1,
									"numoutlets" : 0,
									"patching_rect" : [ 17.0, 16.0, 260.0, 62.0 ],
									"presentation" : 1,
									"presentation_rect" : [ 17.0, 16.0, 260.0, 62.0 ],
									"text" : "FFTease"
								}

							}
, 							{
								"box" : 								{
									"fontsize" : 22.0,
									"id" : "obj-4",
									"linecount" : 4,
									"maxclass" : "comment",
									"numinlets" : 1,
									"numoutlets" : 0,
									"patching_rect" : [ 17.0, 87.0, 761.0, 105.0 ],
									"presentation" : 1,
									"presentation_linecount" : 4,
									"presentation_rect" : [ 17.0, 83.0, 760.0, 105.0 ],
									"text" : "The Synthesizers category contains two objects that produce sound with no input, using cellular automata. Plenty of room for growth in this category, and machine learning might be an interesting direction to explore for possible new spectral synthesizer objects."
								}

							}
 ],
						"lines" : [ 							{
								"patchline" : 								{
									"destination" : [ "obj-5", 0 ],
									"source" : [ "obj-1", 1 ]
								}

							}
, 							{
								"patchline" : 								{
									"destination" : [ "obj-5", 0 ],
									"source" : [ "obj-15", 1 ]
								}

							}
, 							{
								"patchline" : 								{
									"destination" : [ "obj-28", 0 ],
									"source" : [ "obj-30", 0 ]
								}

							}
, 							{
								"patchline" : 								{
									"destination" : [ "obj-30", 0 ],
									"source" : [ "obj-31", 0 ]
								}

							}
, 							{
								"patchline" : 								{
									"destination" : [ "obj-6", 0 ],
									"source" : [ "obj-5", 0 ]
								}

							}
 ]
					}
,
					"patching_rect" : [ 300.0, 244.0, 87.0, 22.0 ],
					"saved_object_attributes" : 					{
						"description" : "",
						"digest" : "",
						"globalpatchername" : "",
						"tags" : ""
					}
,
					"text" : "p Synthesizers"
				}

			}
, 			{
				"box" : 				{
					"id" : "obj-5",
					"maxclass" : "newobj",
					"numinlets" : 0,
					"numoutlets" : 0,
					"patcher" : 					{
						"fileversion" : 1,
						"appversion" : 						{
							"major" : 9,
							"minor" : 0,
							"revision" : 0,
							"architecture" : "x64",
							"modernui" : 1
						}
,
						"classnamespace" : "box",
						"rect" : [ 0.0, 26.0, 876.0, 829.0 ],
						"bglocked" : 0,
						"openinpresentation" : 1,
						"default_fontsize" : 12.0,
						"default_fontface" : 0,
						"default_fontname" : "Arial",
						"gridonopen" : 2,
						"gridsize" : [ 15.0, 15.0 ],
						"gridsnaponopen" : 1,
						"objectsnaponopen" : 1,
						"statusbarvisible" : 2,
						"toolbarvisible" : 1,
						"lefttoolbarpinned" : 0,
						"toptoolbarpinned" : 0,
						"righttoolbarpinned" : 0,
						"bottomtoolbarpinned" : 0,
						"toolbars_unpinned_last_save" : 0,
						"tallnewobj" : 0,
						"boxanimatetime" : 200,
						"enablehscroll" : 1,
						"enablevscroll" : 1,
						"devicewidth" : 0.0,
						"description" : "",
						"digest" : "",
						"tags" : "",
						"style" : "",
						"subpatcher_template" : "ShowGrid_template",
						"showontab" : 1,
						"assistshowspatchername" : 0,
						"boxes" : [ 							{
								"box" : 								{
									"fontface" : 1,
									"fontname" : "Arial Rounded MT Bold",
									"fontsize" : 48.0,
									"id" : "obj-24",
									"maxclass" : "comment",
									"numinlets" : 1,
									"numoutlets" : 0,
									"patching_rect" : [ 17.0, 16.0, 260.0, 62.0 ],
									"presentation" : 1,
									"presentation_rect" : [ 17.0, 16.0, 260.0, 62.0 ],
									"text" : "FFTease"
								}

							}
, 							{
								"box" : 								{
									"id" : "obj-31",
									"maxclass" : "newobj",
									"numinlets" : 1,
									"numoutlets" : 1,
									"outlettype" : [ "bang" ],
									"patching_rect" : [ 684.0, 597.0, 58.0, 22.0 ],
									"text" : "loadbang"
								}

							}
, 							{
								"box" : 								{
									"id" : "obj-30",
									"maxclass" : "message",
									"numinlets" : 2,
									"numoutlets" : 1,
									"outlettype" : [ "" ],
									"patching_rect" : [ 684.0, 624.0, 85.0, 22.0 ],
									"text" : "presentation 1"
								}

							}
, 							{
								"box" : 								{
									"id" : "obj-28",
									"maxclass" : "newobj",
									"numinlets" : 1,
									"numoutlets" : 2,
									"outlettype" : [ "", "" ],
									"patching_rect" : [ 684.0, 653.0, 67.0, 22.0 ],
									"save" : [ "#N", "thispatcher", ";", "#Q", "end", ";" ],
									"text" : "thispatcher"
								}

							}
, 							{
								"box" : 								{
									"id" : "obj-8",
									"maxclass" : "textbutton",
									"numinlets" : 1,
									"numoutlets" : 3,
									"outlettype" : [ "", "", "int" ],
									"outputmode" : 0,
									"parameter_enable" : 0,
									"patching_rect" : [ 28.0, 444.0, 126.0, 19.0 ],
									"presentation" : 1,
									"presentation_rect" : [ 28.0, 501.0, 131.0, 20.0 ],
									"text" : "fftz.reanimator~",
									"texton" : "fftz.reanimator~"
								}

							}
, 							{
								"box" : 								{
									"id" : "obj-7",
									"maxclass" : "textbutton",
									"numinlets" : 1,
									"numoutlets" : 3,
									"outlettype" : [ "", "", "int" ],
									"outputmode" : 0,
									"parameter_enable" : 0,
									"patching_rect" : [ 28.0, 417.0, 126.0, 19.0 ],
									"presentation" : 1,
									"presentation_rect" : [ 28.0, 468.0, 131.0, 20.0 ],
									"text" : "fftz.residency~",
									"texton" : "fftz.residency~"
								}

							}
, 							{
								"box" : 								{
									"id" : "obj-3",
									"maxclass" : "textbutton",
									"numinlets" : 1,
									"numoutlets" : 3,
									"outlettype" : [ "", "", "int" ],
									"outputmode" : 0,
									"parameter_enable" : 0,
									"patching_rect" : [ 28.0, 391.0, 126.0, 19.0 ],
									"presentation" : 1,
									"presentation_rect" : [ 28.0, 434.0, 131.0, 20.0 ],
									"text" : "fftz.residency_buffer~",
									"texton" : "fftz.residency_buffer~"
								}

							}
, 							{
								"box" : 								{
									"id" : "obj-2",
									"maxclass" : "textbutton",
									"numinlets" : 1,
									"numoutlets" : 3,
									"outlettype" : [ "", "", "int" ],
									"outputmode" : 0,
									"parameter_enable" : 0,
									"patching_rect" : [ 28.0, 363.0, 126.0, 19.0 ],
									"presentation" : 1,
									"presentation_rect" : [ 28.0, 401.0, 131.0, 20.0 ],
									"text" : "fftz.resent~",
									"texton" : "fftz.resent~"
								}

							}
, 							{
								"box" : 								{
									"id" : "obj-1",
									"maxclass" : "textbutton",
									"numinlets" : 1,
									"numoutlets" : 3,
									"outlettype" : [ "", "", "int" ],
									"outputmode" : 0,
									"parameter_enable" : 0,
									"patching_rect" : [ 28.0, 333.0, 126.0, 19.0 ],
									"presentation" : 1,
									"presentation_rect" : [ 28.0, 367.0, 131.0, 20.0 ],
									"text" : "fftz.morphine~",
									"texton" : "fftz.morphine~"
								}

							}
, 							{
								"box" : 								{
									"id" : "obj-15",
									"maxclass" : "textbutton",
									"numinlets" : 1,
									"numoutlets" : 3,
									"outlettype" : [ "", "", "int" ],
									"outputmode" : 0,
									"parameter_enable" : 0,
									"patching_rect" : [ 28.0, 304.0, 126.0, 19.0 ],
									"presentation" : 1,
									"presentation_rect" : [ 28.0, 334.0, 131.0, 20.0 ],
									"text" : "fftz.loopsea~",
									"texton" : "fftz.loopsea~"
								}

							}
, 							{
								"box" : 								{
									"id" : "obj-6",
									"maxclass" : "newobj",
									"numinlets" : 1,
									"numoutlets" : 1,
									"outlettype" : [ "" ],
									"patching_rect" : [ 510.0, 520.0, 51.0, 22.0 ],
									"text" : "pcontrol"
								}

							}
, 							{
								"box" : 								{
									"id" : "obj-5",
									"maxclass" : "newobj",
									"numinlets" : 1,
									"numoutlets" : 1,
									"outlettype" : [ "" ],
									"patching_rect" : [ 510.0, 490.0, 79.0, 22.0 ],
									"text" : "prepend help"
								}

							}
, 							{
								"box" : 								{
									"fontsize" : 22.0,
									"id" : "obj-4",
									"linecount" : 8,
									"maxclass" : "comment",
									"numinlets" : 1,
									"numoutlets" : 0,
									"patching_rect" : [ 12.0, 83.0, 761.0, 203.0 ],
									"presentation" : 1,
									"presentation_linecount" : 8,
									"presentation_rect" : [ 17.0, 83.0, 756.0, 203.0 ],
									"text" : "Objects in the Spectral Samplers category require recording a fixed duration of sound into the object before synthesis can take place. The benefit of this paradigm is that after the sound has been stored as a series of FFT frames, the sound can be reproduced with arbitrary temporal adjustments. For example, fftz.residency~ allows for playback at any negative or positive speed, including zero, which produces a frozen spectrum. The spectral sample can also be scrubbed in real-time without changes to the underlying frequency structure."
								}

							}
 ],
						"lines" : [ 							{
								"patchline" : 								{
									"destination" : [ "obj-5", 0 ],
									"source" : [ "obj-1", 1 ]
								}

							}
, 							{
								"patchline" : 								{
									"destination" : [ "obj-5", 0 ],
									"source" : [ "obj-15", 1 ]
								}

							}
, 							{
								"patchline" : 								{
									"destination" : [ "obj-5", 0 ],
									"source" : [ "obj-2", 1 ]
								}

							}
, 							{
								"patchline" : 								{
									"destination" : [ "obj-5", 0 ],
									"source" : [ "obj-3", 1 ]
								}

							}
, 							{
								"patchline" : 								{
									"destination" : [ "obj-28", 0 ],
									"source" : [ "obj-30", 0 ]
								}

							}
, 							{
								"patchline" : 								{
									"destination" : [ "obj-30", 0 ],
									"source" : [ "obj-31", 0 ]
								}

							}
, 							{
								"patchline" : 								{
									"destination" : [ "obj-6", 0 ],
									"source" : [ "obj-5", 0 ]
								}

							}
, 							{
								"patchline" : 								{
									"destination" : [ "obj-5", 0 ],
									"source" : [ "obj-7", 1 ]
								}

							}
, 							{
								"patchline" : 								{
									"destination" : [ "obj-5", 0 ],
									"source" : [ "obj-8", 1 ]
								}

							}
 ]
					}
,
					"patching_rect" : [ 281.0, 205.0, 125.0, 22.0 ],
					"saved_object_attributes" : 					{
						"description" : "",
						"digest" : "",
						"globalpatchername" : "",
						"tags" : ""
					}
,
					"text" : "p \"Spectral Samplers\""
				}

			}
, 			{
				"box" : 				{
					"id" : "obj-4",
					"maxclass" : "newobj",
					"numinlets" : 0,
					"numoutlets" : 0,
					"patcher" : 					{
						"fileversion" : 1,
						"appversion" : 						{
							"major" : 9,
							"minor" : 0,
							"revision" : 0,
							"architecture" : "x64",
							"modernui" : 1
						}
,
						"classnamespace" : "box",
						"rect" : [ 0.0, 26.0, 876.0, 829.0 ],
						"bglocked" : 0,
						"openinpresentation" : 1,
						"default_fontsize" : 12.0,
						"default_fontface" : 0,
						"default_fontname" : "Arial",
						"gridonopen" : 2,
						"gridsize" : [ 15.0, 15.0 ],
						"gridsnaponopen" : 1,
						"objectsnaponopen" : 1,
						"statusbarvisible" : 2,
						"toolbarvisible" : 1,
						"lefttoolbarpinned" : 0,
						"toptoolbarpinned" : 0,
						"righttoolbarpinned" : 0,
						"bottomtoolbarpinned" : 0,
						"toolbars_unpinned_last_save" : 0,
						"tallnewobj" : 0,
						"boxanimatetime" : 200,
						"enablehscroll" : 1,
						"enablevscroll" : 1,
						"devicewidth" : 0.0,
						"description" : "",
						"digest" : "",
						"tags" : "",
						"style" : "",
						"subpatcher_template" : "ShowGrid_template",
						"showontab" : 1,
						"assistshowspatchername" : 0,
						"boxes" : [ 							{
								"box" : 								{
									"id" : "obj-14",
									"maxclass" : "textbutton",
									"numinlets" : 1,
									"numoutlets" : 3,
									"outlettype" : [ "", "", "int" ],
									"outputmode" : 0,
									"parameter_enable" : 0,
									"patching_rect" : [ 23.0, 281.0, 100.0, 20.0 ],
									"presentation" : 1,
									"presentation_rect" : [ 31.0, 325.636363636363683, 100.0, 20.0 ],
									"text" : "fftz.pvgrain~",
									"texton" : "fftz.pvgrain~"
								}

							}
, 							{
								"box" : 								{
									"fontface" : 1,
									"fontname" : "Arial Rounded MT Bold",
									"fontsize" : 48.0,
									"id" : "obj-24",
									"maxclass" : "comment",
									"numinlets" : 1,
									"numoutlets" : 0,
									"patching_rect" : [ 17.0, 16.0, 260.0, 62.0 ],
									"presentation" : 1,
									"presentation_rect" : [ 17.0, 16.0, 260.0, 62.0 ],
									"text" : "FFTease"
								}

							}
, 							{
								"box" : 								{
									"id" : "obj-31",
									"maxclass" : "newobj",
									"numinlets" : 1,
									"numoutlets" : 1,
									"outlettype" : [ "bang" ],
									"patching_rect" : [ 684.0, 597.0, 58.0, 22.0 ],
									"text" : "loadbang"
								}

							}
, 							{
								"box" : 								{
									"id" : "obj-30",
									"maxclass" : "message",
									"numinlets" : 2,
									"numoutlets" : 1,
									"outlettype" : [ "" ],
									"patching_rect" : [ 684.0, 624.0, 85.0, 22.0 ],
									"text" : "presentation 1"
								}

							}
, 							{
								"box" : 								{
									"id" : "obj-28",
									"maxclass" : "newobj",
									"numinlets" : 1,
									"numoutlets" : 2,
									"outlettype" : [ "", "" ],
									"patching_rect" : [ 684.0, 653.0, 67.0, 22.0 ],
									"save" : [ "#N", "thispatcher", ";", "#Q", "end", ";" ],
									"text" : "thispatcher"
								}

							}
, 							{
								"box" : 								{
									"id" : "obj-13",
									"maxclass" : "textbutton",
									"numinlets" : 1,
									"numoutlets" : 3,
									"outlettype" : [ "", "", "int" ],
									"outputmode" : 0,
									"parameter_enable" : 0,
									"patching_rect" : [ 23.0, 464.0, 100.0, 20.0 ],
									"presentation" : 1,
									"presentation_rect" : [ 31.0, 498.000000000000171, 100.0, 20.0 ],
									"text" : "fftz.xsyn~",
									"texton" : "fftz.xsyn~"
								}

							}
, 							{
								"box" : 								{
									"id" : "obj-12",
									"maxclass" : "textbutton",
									"numinlets" : 1,
									"numoutlets" : 3,
									"outlettype" : [ "", "", "int" ],
									"outputmode" : 0,
									"parameter_enable" : 0,
									"patching_rect" : [ 23.0, 433.0, 100.0, 20.0 ],
									"presentation" : 1,
									"presentation_rect" : [ 31.0, 469.272727272727423, 100.0, 20.0 ],
									"text" : "fftz.vacancy~",
									"texton" : "fftz.vacancy~"
								}

							}
, 							{
								"box" : 								{
									"id" : "obj-11",
									"maxclass" : "textbutton",
									"numinlets" : 1,
									"numoutlets" : 3,
									"outlettype" : [ "", "", "int" ],
									"outputmode" : 0,
									"parameter_enable" : 0,
									"patching_rect" : [ 23.0, 403.0, 100.0, 20.0 ],
									"presentation" : 1,
									"presentation_rect" : [ 31.0, 440.545454545454675, 100.0, 20.0 ],
									"text" : "fftz.taint~",
									"texton" : "fftz.taint~"
								}

							}
, 							{
								"box" : 								{
									"id" : "obj-10",
									"maxclass" : "textbutton",
									"numinlets" : 1,
									"numoutlets" : 3,
									"outlettype" : [ "", "", "int" ],
									"outputmode" : 0,
									"parameter_enable" : 0,
									"patching_rect" : [ 23.0, 375.0, 100.0, 20.0 ],
									"presentation" : 1,
									"presentation_rect" : [ 31.0, 411.818181818181927, 100.0, 20.0 ],
									"text" : "fftz.swinger~",
									"texton" : "fftz.swinger~"
								}

							}
, 							{
								"box" : 								{
									"id" : "obj-9",
									"maxclass" : "textbutton",
									"numinlets" : 1,
									"numoutlets" : 3,
									"outlettype" : [ "", "", "int" ],
									"outputmode" : 0,
									"parameter_enable" : 0,
									"patching_rect" : [ 23.0, 343.0, 100.0, 20.0 ],
									"presentation" : 1,
									"presentation_rect" : [ 31.0, 383.090909090909179, 100.0, 20.0 ],
									"text" : "fftz.shapee~",
									"texton" : "fftz.shapee~"
								}

							}
, 							{
								"box" : 								{
									"id" : "obj-8",
									"maxclass" : "textbutton",
									"numinlets" : 1,
									"numoutlets" : 3,
									"outlettype" : [ "", "", "int" ],
									"outputmode" : 0,
									"parameter_enable" : 0,
									"patching_rect" : [ 23.0, 314.0, 100.0, 20.0 ],
									"presentation" : 1,
									"presentation_rect" : [ 31.0, 354.363636363636431, 100.0, 20.0 ],
									"text" : "fftz.reanimator~",
									"texton" : "fftz.reanimator~"
								}

							}
, 							{
								"box" : 								{
									"id" : "obj-7",
									"maxclass" : "textbutton",
									"numinlets" : 1,
									"numoutlets" : 3,
									"outlettype" : [ "", "", "int" ],
									"outputmode" : 0,
									"parameter_enable" : 0,
									"patching_rect" : [ 23.0, 257.0, 100.0, 20.0 ],
									"presentation" : 1,
									"presentation_rect" : [ 31.0, 296.909090909090935, 100.0, 20.0 ],
									"text" : "fftz.leaker~",
									"texton" : "fftz.leaker~"
								}

							}
, 							{
								"box" : 								{
									"id" : "obj-3",
									"maxclass" : "textbutton",
									"numinlets" : 1,
									"numoutlets" : 3,
									"outlettype" : [ "", "", "int" ],
									"outputmode" : 0,
									"parameter_enable" : 0,
									"patching_rect" : [ 23.0, 231.0, 100.0, 20.0 ],
									"presentation" : 1,
									"presentation_rect" : [ 31.0, 268.181818181818187, 100.0, 20.0 ],
									"text" : "fftz.ether~",
									"texton" : "fftz.ether~"
								}

							}
, 							{
								"box" : 								{
									"id" : "obj-2",
									"maxclass" : "textbutton",
									"numinlets" : 1,
									"numoutlets" : 3,
									"outlettype" : [ "", "", "int" ],
									"outputmode" : 0,
									"parameter_enable" : 0,
									"patching_rect" : [ 23.0, 203.0, 100.0, 20.0 ],
									"presentation" : 1,
									"presentation_rect" : [ 31.0, 239.454545454545439, 100.0, 20.0 ],
									"text" : "fftz.cross~",
									"texton" : "fftz.cross~"
								}

							}
, 							{
								"box" : 								{
									"id" : "obj-1",
									"maxclass" : "textbutton",
									"numinlets" : 1,
									"numoutlets" : 3,
									"outlettype" : [ "", "", "int" ],
									"outputmode" : 0,
									"parameter_enable" : 0,
									"patching_rect" : [ 23.0, 173.0, 100.0, 20.0 ],
									"presentation" : 1,
									"presentation_rect" : [ 31.0, 210.72727272727272, 100.0, 20.0 ],
									"text" : "fftz.codepend~",
									"texton" : "fftz.codepend~"
								}

							}
, 							{
								"box" : 								{
									"id" : "obj-15",
									"maxclass" : "textbutton",
									"numinlets" : 1,
									"numoutlets" : 3,
									"outlettype" : [ "", "", "int" ],
									"outputmode" : 0,
									"parameter_enable" : 0,
									"patching_rect" : [ 23.0, 144.0, 100.0, 20.0 ],
									"presentation" : 1,
									"presentation_rect" : [ 31.0, 182.0, 100.0, 20.0 ],
									"text" : "fftz.burrow~",
									"texton" : "fftz.burrow~"
								}

							}
, 							{
								"box" : 								{
									"id" : "obj-6",
									"maxclass" : "newobj",
									"numinlets" : 1,
									"numoutlets" : 1,
									"outlettype" : [ "" ],
									"patching_rect" : [ 510.0, 520.0, 51.0, 22.0 ],
									"text" : "pcontrol"
								}

							}
, 							{
								"box" : 								{
									"id" : "obj-5",
									"maxclass" : "newobj",
									"numinlets" : 1,
									"numoutlets" : 1,
									"outlettype" : [ "" ],
									"patching_rect" : [ 510.0, 490.0, 79.0, 22.0 ],
									"text" : "prepend help"
								}

							}
, 							{
								"box" : 								{
									"fontsize" : 22.0,
									"id" : "obj-4",
									"linecount" : 3,
									"maxclass" : "comment",
									"numinlets" : 1,
									"numoutlets" : 0,
									"patching_rect" : [ 15.0, 24.0, 761.0, 80.0 ],
									"presentation" : 1,
									"presentation_linecount" : 3,
									"presentation_rect" : [ 17.0, 83.0, 761.0, 80.0 ],
									"text" : "The Cross Synthesis category includes live processors with two independent signal inputs, with a single output that combines attributes of both source sounds."
								}

							}
 ],
						"lines" : [ 							{
								"patchline" : 								{
									"destination" : [ "obj-5", 0 ],
									"source" : [ "obj-1", 1 ]
								}

							}
, 							{
								"patchline" : 								{
									"destination" : [ "obj-5", 0 ],
									"source" : [ "obj-10", 1 ]
								}

							}
, 							{
								"patchline" : 								{
									"destination" : [ "obj-5", 0 ],
									"source" : [ "obj-11", 1 ]
								}

							}
, 							{
								"patchline" : 								{
									"destination" : [ "obj-5", 0 ],
									"source" : [ "obj-12", 1 ]
								}

							}
, 							{
								"patchline" : 								{
									"destination" : [ "obj-5", 0 ],
									"source" : [ "obj-13", 1 ]
								}

							}
, 							{
								"patchline" : 								{
									"destination" : [ "obj-5", 0 ],
									"source" : [ "obj-14", 1 ]
								}

							}
, 							{
								"patchline" : 								{
									"destination" : [ "obj-5", 0 ],
									"source" : [ "obj-15", 1 ]
								}

							}
, 							{
								"patchline" : 								{
									"destination" : [ "obj-5", 0 ],
									"source" : [ "obj-2", 1 ]
								}

							}
, 							{
								"patchline" : 								{
									"destination" : [ "obj-5", 0 ],
									"source" : [ "obj-3", 1 ]
								}

							}
, 							{
								"patchline" : 								{
									"destination" : [ "obj-28", 0 ],
									"source" : [ "obj-30", 0 ]
								}

							}
, 							{
								"patchline" : 								{
									"destination" : [ "obj-30", 0 ],
									"source" : [ "obj-31", 0 ]
								}

							}
, 							{
								"patchline" : 								{
									"destination" : [ "obj-6", 0 ],
									"source" : [ "obj-5", 0 ]
								}

							}
, 							{
								"patchline" : 								{
									"destination" : [ "obj-5", 0 ],
									"source" : [ "obj-7", 1 ]
								}

							}
, 							{
								"patchline" : 								{
									"destination" : [ "obj-5", 0 ],
									"source" : [ "obj-8", 1 ]
								}

							}
, 							{
								"patchline" : 								{
									"destination" : [ "obj-5", 0 ],
									"source" : [ "obj-9", 1 ]
								}

							}
 ]
					}
,
					"patching_rect" : [ 240.0, 171.0, 114.0, 22.0 ],
					"saved_object_attributes" : 					{
						"description" : "",
						"digest" : "",
						"globalpatchername" : "",
						"tags" : ""
					}
,
					"text" : "p \"Cross Synthesis\""
				}

			}
, 			{
				"box" : 				{
					"id" : "obj-3",
					"maxclass" : "newobj",
					"numinlets" : 0,
					"numoutlets" : 0,
					"patcher" : 					{
						"fileversion" : 1,
						"appversion" : 						{
							"major" : 9,
							"minor" : 0,
							"revision" : 0,
							"architecture" : "x64",
							"modernui" : 1
						}
,
						"classnamespace" : "box",
						"rect" : [ 0.0, 26.0, 876.0, 829.0 ],
						"bglocked" : 0,
						"openinpresentation" : 1,
						"default_fontsize" : 12.0,
						"default_fontface" : 0,
						"default_fontname" : "Arial",
						"gridonopen" : 2,
						"gridsize" : [ 15.0, 15.0 ],
						"gridsnaponopen" : 1,
						"objectsnaponopen" : 1,
						"statusbarvisible" : 2,
						"toolbarvisible" : 1,
						"lefttoolbarpinned" : 0,
						"toptoolbarpinned" : 0,
						"righttoolbarpinned" : 0,
						"bottomtoolbarpinned" : 0,
						"toolbars_unpinned_last_save" : 0,
						"tallnewobj" : 0,
						"boxanimatetime" : 200,
						"enablehscroll" : 1,
						"enablevscroll" : 1,
						"devicewidth" : 0.0,
						"description" : "",
						"digest" : "",
						"tags" : "",
						"style" : "",
						"subpatcher_template" : "ShowGrid_template",
						"showontab" : 1,
						"assistshowspatchername" : 0,
						"boxes" : [ 							{
								"box" : 								{
									"fontface" : 2,
									"fontname" : "Lato",
									"id" : "obj-50",
									"maxclass" : "comment",
									"numinlets" : 1,
									"numoutlets" : 0,
									"patching_rect" : [ 228.5, 669.0, 328.0, 21.0 ],
									"presentation" : 1,
									"presentation_rect" : [ 492.0, 195.0, 269.0, 21.0 ],
									"text" : "Cross filtering",
									"textcolor" : [ 0.0, 0.0, 0.0, 0.0 ]
								}

							}
, 							{
								"box" : 								{
									"fontname" : "Lato",
									"id" : "obj-48",
									"linecount" : 2,
									"maxclass" : "comment",
									"numinlets" : 1,
									"numoutlets" : 0,
									"patching_rect" : [ 195.5, 701.0, 177.0, 35.0 ],
									"presentation" : 1,
									"presentation_rect" : [ 492.0, 231.0, 269.0, 21.0 ],
									"text" : "Use one sound to filter another sound.",
									"textcolor" : [ 0.0, 0.0, 0.0, 0.0 ]
								}

							}
, 							{
								"box" : 								{
									"fontface" : 3,
									"fontname" : "Lato",
									"fontsize" : 24.0,
									"id" : "obj-47",
									"maxclass" : "comment",
									"numinlets" : 1,
									"numoutlets" : 0,
									"patching_rect" : [ 162.5, 673.0, 276.0, 35.0 ],
									"presentation" : 1,
									"presentation_rect" : [ 492.0, 145.0, 284.0, 35.0 ],
									"text" : "fftz.burrow~",
									"textcolor" : [ 0.0, 0.0, 0.0, 0.0 ]
								}

							}
, 							{
								"box" : 								{
									"hidden" : 1,
									"id" : "obj-56",
									"maxclass" : "newobj",
									"numinlets" : 1,
									"numoutlets" : 0,
									"patcher" : 									{
										"fileversion" : 1,
										"appversion" : 										{
											"major" : 9,
											"minor" : 0,
											"revision" : 0,
											"architecture" : "x64",
											"modernui" : 1
										}
,
										"classnamespace" : "box",
										"rect" : [ 59.0, 104.0, 640.0, 480.0 ],
										"bglocked" : 0,
										"openinpresentation" : 0,
										"default_fontsize" : 12.0,
										"default_fontface" : 0,
										"default_fontname" : "Arial",
										"gridonopen" : 1,
										"gridsize" : [ 15.0, 15.0 ],
										"gridsnaponopen" : 1,
										"objectsnaponopen" : 1,
										"statusbarvisible" : 2,
										"toolbarvisible" : 1,
										"lefttoolbarpinned" : 0,
										"toptoolbarpinned" : 0,
										"righttoolbarpinned" : 0,
										"bottomtoolbarpinned" : 0,
										"toolbars_unpinned_last_save" : 0,
										"tallnewobj" : 0,
										"boxanimatetime" : 200,
										"enablehscroll" : 1,
										"enablevscroll" : 1,
										"devicewidth" : 0.0,
										"description" : "",
										"digest" : "",
										"tags" : "",
										"style" : "",
										"subpatcher_template" : "",
										"assistshowspatchername" : 0,
										"boxes" : [ 											{
												"box" : 												{
													"comment" : "",
													"id" : "obj-1",
													"index" : 1,
													"maxclass" : "inlet",
													"numinlets" : 0,
													"numoutlets" : 1,
													"outlettype" : [ "" ],
													"patching_rect" : [ 50.0, 42.0, 30.0, 30.0 ]
												}

											}
, 											{
												"box" : 												{
													"id" : "obj-13",
													"maxclass" : "newobj",
													"numinlets" : 1,
													"numoutlets" : 1,
													"outlettype" : [ "" ],
													"patching_rect" : [ 50.0, 124.0, 115.0, 22.0 ],
													"style" : "SDT_package",
													"text" : "prepend loadunique"
												}

											}
, 											{
												"box" : 												{
													"id" : "obj-81",
													"maxclass" : "newobj",
													"numinlets" : 1,
													"numoutlets" : 1,
													"outlettype" : [ "" ],
													"patching_rect" : [ 50.0, 151.0, 55.0, 22.0 ],
													"style" : "SDT_package",
													"text" : "pcontrol"
												}

											}
, 											{
												"box" : 												{
													"id" : "obj-80",
													"maxclass" : "newobj",
													"numinlets" : 1,
													"numoutlets" : 1,
													"outlettype" : [ "" ],
													"patching_rect" : [ 50.0, 100.0, 111.0, 22.0 ],
													"style" : "SDT_package",
													"text" : "sprintf %s.maxhelp"
												}

											}
 ],
										"lines" : [ 											{
												"patchline" : 												{
													"destination" : [ "obj-80", 0 ],
													"source" : [ "obj-1", 0 ]
												}

											}
, 											{
												"patchline" : 												{
													"destination" : [ "obj-81", 0 ],
													"source" : [ "obj-13", 0 ]
												}

											}
, 											{
												"patchline" : 												{
													"destination" : [ "obj-13", 0 ],
													"source" : [ "obj-80", 0 ]
												}

											}
 ]
									}
,
									"patching_rect" : [ 65.692302942276001, 356.730767786502838, 90.0, 22.0 ],
									"saved_object_attributes" : 									{
										"description" : "",
										"digest" : "",
										"globalpatchername" : "",
										"tags" : ""
									}
,
									"text" : "p load.maxhelp"
								}

							}
, 							{
								"box" : 								{
									"angle" : 270.0,
									"bgcolor" : [ 0.2, 0.2, 0.2, 0.0 ],
									"border" : 2,
									"bordercolor" : [ 0.529411764705882, 0.529411764705882, 0.529411764705882, 1.0 ],
									"id" : "obj-36",
									"maxclass" : "panel",
									"mode" : 0,
									"numinlets" : 1,
									"numoutlets" : 0,
									"patching_rect" : [ 603.0, 120.5, 128.0, 128.0 ],
									"presentation" : 1,
									"presentation_rect" : [ 479.0, 126.0, 309.0, 177.0 ],
									"proportion" : 0.5
								}

							}
, 							{
								"box" : 								{
									"id" : "obj-33",
									"maxclass" : "newobj",
									"numinlets" : 1,
									"numoutlets" : 3,
									"outlettype" : [ "", "", "" ],
									"patcher" : 									{
										"fileversion" : 1,
										"appversion" : 										{
											"major" : 9,
											"minor" : 0,
											"revision" : 0,
											"architecture" : "x64",
											"modernui" : 1
										}
,
										"classnamespace" : "box",
										"rect" : [ 129.0, 226.0, 464.0, 575.0 ],
										"bglocked" : 0,
										"openinpresentation" : 0,
										"default_fontsize" : 12.0,
										"default_fontface" : 0,
										"default_fontname" : "Arial",
										"gridonopen" : 1,
										"gridsize" : [ 15.0, 15.0 ],
										"gridsnaponopen" : 1,
										"objectsnaponopen" : 1,
										"statusbarvisible" : 2,
										"toolbarvisible" : 1,
										"lefttoolbarpinned" : 0,
										"toptoolbarpinned" : 0,
										"righttoolbarpinned" : 0,
										"bottomtoolbarpinned" : 0,
										"toolbars_unpinned_last_save" : 0,
										"tallnewobj" : 0,
										"boxanimatetime" : 200,
										"enablehscroll" : 1,
										"enablevscroll" : 1,
										"devicewidth" : 0.0,
										"description" : "",
										"digest" : "",
										"tags" : "",
										"style" : "",
										"subpatcher_template" : "",
										"assistshowspatchername" : 0,
										"boxes" : [ 											{
												"box" : 												{
													"id" : "obj-52",
													"maxclass" : "newobj",
													"numinlets" : 1,
													"numoutlets" : 1,
													"outlettype" : [ "" ],
													"patcher" : 													{
														"fileversion" : 1,
														"appversion" : 														{
															"major" : 9,
															"minor" : 0,
															"revision" : 0,
															"architecture" : "x64",
															"modernui" : 1
														}
,
														"classnamespace" : "box",
														"rect" : [ 59.0, 104.0, 238.0, 407.0 ],
														"bglocked" : 0,
														"openinpresentation" : 0,
														"default_fontsize" : 12.0,
														"default_fontface" : 0,
														"default_fontname" : "Arial",
														"gridonopen" : 1,
														"gridsize" : [ 15.0, 15.0 ],
														"gridsnaponopen" : 1,
														"objectsnaponopen" : 1,
														"statusbarvisible" : 2,
														"toolbarvisible" : 1,
														"lefttoolbarpinned" : 0,
														"toptoolbarpinned" : 0,
														"righttoolbarpinned" : 0,
														"bottomtoolbarpinned" : 0,
														"toolbars_unpinned_last_save" : 0,
														"tallnewobj" : 0,
														"boxanimatetime" : 200,
														"enablehscroll" : 1,
														"enablevscroll" : 1,
														"devicewidth" : 0.0,
														"description" : "",
														"digest" : "",
														"tags" : "",
														"style" : "",
														"subpatcher_template" : "",
														"assistshowspatchername" : 0,
														"boxes" : [ 															{
																"box" : 																{
																	"id" : "obj-2",
																	"maxclass" : "newobj",
																	"numinlets" : 1,
																	"numoutlets" : 1,
																	"outlettype" : [ "" ],
																	"patching_rect" : [ 50.0, 184.0, 59.0, 22.0 ],
																	"style" : "SDTpackage",
																	"text" : "append 1"
																}

															}
, 															{
																"box" : 																{
																	"id" : "obj-9",
																	"maxclass" : "newobj",
																	"numinlets" : 1,
																	"numoutlets" : 2,
																	"outlettype" : [ "int", "stop" ],
																	"patching_rect" : [ 50.0, 130.0, 48.0, 22.0 ],
																	"style" : "SDTpackage",
																	"text" : "t i stop"
																}

															}
, 															{
																"box" : 																{
																	"id" : "obj-3",
																	"maxclass" : "newobj",
																	"numinlets" : 2,
																	"numoutlets" : 1,
																	"outlettype" : [ "" ],
																	"patching_rect" : [ 50.0, 159.0, 41.0, 22.0 ],
																	"style" : "SDTpackage",
																	"text" : "pipe 1"
																}

															}
, 															{
																"box" : 																{
																	"id" : "obj-7",
																	"maxclass" : "message",
																	"numinlets" : 2,
																	"numoutlets" : 1,
																	"outlettype" : [ "" ],
																	"patching_rect" : [ 50.0, 261.0, 117.0, 22.0 ],
																	"style" : "SDTpackage",
																	"text" : "textcolor 0. 0. 0. $1."
																}

															}
, 															{
																"box" : 																{
																	"id" : "obj-4",
																	"maxclass" : "newobj",
																	"numinlets" : 3,
																	"numoutlets" : 2,
																	"outlettype" : [ "", "bang" ],
																	"patching_rect" : [ 50.0, 215.0, 48.0, 22.0 ],
																	"style" : "SDTpackage",
																	"text" : "line 0."
																}

															}
, 															{
																"box" : 																{
																	"id" : "obj-16",
																	"maxclass" : "newobj",
																	"numinlets" : 2,
																	"numoutlets" : 1,
																	"outlettype" : [ "int" ],
																	"patching_rect" : [ 50.0, 100.0, 36.0, 22.0 ],
																	"style" : "SDTpackage",
																	"text" : "!= -1"
																}

															}
, 															{
																"box" : 																{
																	"comment" : "",
																	"id" : "obj-50",
																	"index" : 1,
																	"maxclass" : "inlet",
																	"numinlets" : 0,
																	"numoutlets" : 1,
																	"outlettype" : [ "" ],
																	"patching_rect" : [ 50.0, 40.0, 30.0, 30.0 ]
																}

															}
, 															{
																"box" : 																{
																	"comment" : "",
																	"id" : "obj-51",
																	"index" : 1,
																	"maxclass" : "outlet",
																	"numinlets" : 1,
																	"numoutlets" : 0,
																	"patching_rect" : [ 50.0, 329.0, 30.0, 30.0 ]
																}

															}
 ],
														"lines" : [ 															{
																"patchline" : 																{
																	"destination" : [ "obj-9", 0 ],
																	"source" : [ "obj-16", 0 ]
																}

															}
, 															{
																"patchline" : 																{
																	"destination" : [ "obj-4", 0 ],
																	"source" : [ "obj-2", 0 ]
																}

															}
, 															{
																"patchline" : 																{
																	"destination" : [ "obj-2", 0 ],
																	"source" : [ "obj-3", 0 ]
																}

															}
, 															{
																"patchline" : 																{
																	"destination" : [ "obj-7", 0 ],
																	"source" : [ "obj-4", 0 ]
																}

															}
, 															{
																"patchline" : 																{
																	"destination" : [ "obj-16", 0 ],
																	"source" : [ "obj-50", 0 ]
																}

															}
, 															{
																"patchline" : 																{
																	"destination" : [ "obj-51", 0 ],
																	"source" : [ "obj-7", 0 ]
																}

															}
, 															{
																"patchline" : 																{
																	"destination" : [ "obj-3", 0 ],
																	"source" : [ "obj-9", 1 ]
																}

															}
, 															{
																"patchline" : 																{
																	"destination" : [ "obj-3", 0 ],
																	"source" : [ "obj-9", 0 ]
																}

															}
 ]
													}
,
													"patching_rect" : [ 397.166677333333382, 112.0, 42.0, 22.0 ],
													"saved_object_attributes" : 													{
														"description" : "",
														"digest" : "",
														"globalpatchername" : "",
														"tags" : ""
													}
,
													"text" : "p fade"
												}

											}
, 											{
												"box" : 												{
													"id" : "obj-20",
													"maxclass" : "newobj",
													"numinlets" : 1,
													"numoutlets" : 3,
													"outlettype" : [ "", "", "" ],
													"patching_rect" : [ 170.266666666666708, 362.0, 173.0, 22.0 ],
													"text" : "dict.unpack description: digest:"
												}

											}
, 											{
												"box" : 												{
													"id" : "obj-19",
													"maxclass" : "newobj",
													"numinlets" : 2,
													"numoutlets" : 2,
													"outlettype" : [ "", "" ],
													"patching_rect" : [ 79.0, 320.0, 55.0, 22.0 ],
													"text" : "zl.slice 1"
												}

											}
, 											{
												"box" : 												{
													"id" : "obj-18",
													"maxclass" : "newobj",
													"numinlets" : 1,
													"numoutlets" : 1,
													"outlettype" : [ "" ],
													"patching_rect" : [ 324.266666666666708, 408.0, 72.0, 22.0 ],
													"text" : "prepend set"
												}

											}
, 											{
												"box" : 												{
													"id" : "obj-17",
													"maxclass" : "newobj",
													"numinlets" : 1,
													"numoutlets" : 1,
													"outlettype" : [ "" ],
													"patching_rect" : [ 170.266666666666708, 408.0, 72.0, 22.0 ],
													"text" : "prepend set"
												}

											}
, 											{
												"box" : 												{
													"coll_data" : 													{
														"count" : 38,
														"data" : [ 															{
																"key" : 0,
																"value" : [ "fftz.bthresher~" ]
															}
, 															{
																"key" : 1,
																"value" : [ "fftz.burrow~" ]
															}
, 															{
																"key" : 2,
																"value" : [ "fftz.cavoc27~" ]
															}
, 															{
																"key" : 3,
																"value" : [ "fftz.cavoc~" ]
															}
, 															{
																"key" : 4,
																"value" : [ "fftz.centerring~" ]
															}
, 															{
																"key" : 5,
																"value" : [ "fftz.codepend~" ]
															}
, 															{
																"key" : 6,
																"value" : [ "fftz.cross~" ]
															}
, 															{
																"key" : 7,
																"value" : [ "fftz.dentist~" ]
															}
, 															{
																"key" : 8,
																"value" : [ "fftz.disarrain~" ]
															}
, 															{
																"key" : 9,
																"value" : [ "fftz.disarray~" ]
															}
, 															{
																"key" : 10,
																"value" : [ "fftz.drown~" ]
															}
, 															{
																"key" : 11,
																"value" : [ "fftz.enrich~" ]
															}
, 															{
																"key" : 12,
																"value" : [ "fftz.ether~" ]
															}
, 															{
																"key" : 13,
																"value" : [ "fftz.leaker~" ]
															}
, 															{
																"key" : 14,
																"value" : [ "fftz.loopsea~" ]
															}
, 															{
																"key" : 15,
																"value" : [ "fftz.mindwarp~" ]
															}
, 															{
																"key" : 16,
																"value" : [ "fftz.morphine~" ]
															}
, 															{
																"key" : 17,
																"value" : [ "fftz.multyq~" ]
															}
, 															{
																"key" : 18,
																"value" : [ "fftz.pileup~" ]
															}
, 															{
																"key" : 19,
																"value" : [ "fftz.pvcompand~" ]
															}
, 															{
																"key" : 20,
																"value" : [ "fftz.pvgrain~" ]
															}
, 															{
																"key" : 21,
																"value" : [ "fftz.pvharm~" ]
															}
, 															{
																"key" : 22,
																"value" : [ "fftz.pvoc~" ]
															}
, 															{
																"key" : 23,
																"value" : [ "fftz.pvtuner~" ]
															}
, 															{
																"key" : 24,
																"value" : [ "fftz.pvwarpb~" ]
															}
, 															{
																"key" : 25,
																"value" : [ "fftz.pvwarp~" ]
															}
, 															{
																"key" : 26,
																"value" : [ "fftz.reanimator~" ]
															}
, 															{
																"key" : 27,
																"value" : [ "fftz.resent~" ]
															}
, 															{
																"key" : 28,
																"value" : [ "fftz.residency_buffer~" ]
															}
, 															{
																"key" : 29,
																"value" : [ "fftz.residency~" ]
															}
, 															{
																"key" : 30,
																"value" : [ "fftz.schmear~" ]
															}
, 															{
																"key" : 31,
																"value" : [ "fftz.scrape~" ]
															}
, 															{
																"key" : 32,
																"value" : [ "fftz.shapee~" ]
															}
, 															{
																"key" : 33,
																"value" : [ "fftz.swinger~" ]
															}
, 															{
																"key" : 34,
																"value" : [ "fftz.taint~" ]
															}
, 															{
																"key" : 35,
																"value" : [ "fftz.thresher~" ]
															}
, 															{
																"key" : 36,
																"value" : [ "fftz.vacancy~" ]
															}
, 															{
																"key" : 37,
																"value" : [ "fftz.xsyn~" ]
															}
 ]
													}
,
													"id" : "obj-15",
													"maxclass" : "newobj",
													"numinlets" : 1,
													"numoutlets" : 4,
													"outlettype" : [ "", "", "", "" ],
													"patching_rect" : [ 48.0, 112.0, 139.0, 22.0 ],
													"saved_object_attributes" : 													{
														"embed" : 1,
														"precision" : 6
													}
,
													"text" : "coll FFTease @embed 1"
												}

											}
, 											{
												"box" : 												{
													"id" : "obj-12",
													"maxclass" : "newobj",
													"numinlets" : 1,
													"numoutlets" : 1,
													"outlettype" : [ "" ],
													"patching_rect" : [ 48.0, 255.604166666666742, 73.0, 22.0 ],
													"text" : "prepend get"
												}

											}
, 											{
												"box" : 												{
													"id" : "obj-11",
													"maxclass" : "newobj",
													"numinlets" : 2,
													"numoutlets" : 2,
													"outlettype" : [ "", "" ],
													"patching_rect" : [ 48.0, 224.0, 77.0, 22.0 ],
													"text" : "route symbol"
												}

											}
, 											{
												"box" : 												{
													"id" : "obj-8",
													"maxclass" : "newobj",
													"numinlets" : 6,
													"numoutlets" : 6,
													"outlettype" : [ "", "", "", "", "", "" ],
													"patching_rect" : [ 48.0, 72.0, 279.0, 22.0 ],
													"text" : "route FFTease filters envelopes modulators utilities"
												}

											}
, 											{
												"box" : 												{
													"id" : "obj-7",
													"maxclass" : "newobj",
													"numinlets" : 1,
													"numoutlets" : 1,
													"outlettype" : [ "" ],
													"patching_rect" : [ 79.0, 408.0, 72.0, 22.0 ],
													"text" : "prepend set"
												}

											}
, 											{
												"box" : 												{
													"id" : "obj-6",
													"maxclass" : "newobj",
													"numinlets" : 2,
													"numoutlets" : 4,
													"outlettype" : [ "dictionary", "", "", "" ],
													"patching_rect" : [ 48.0, 283.395833333333371, 173.0, 22.0 ],
													"saved_object_attributes" : 													{
														"embed" : 0,
														"legacy" : 1,
														"parameter_enable" : 0,
														"parameter_mappable" : 0
													}
,
													"text" : "dict fftease fftease-objects.json"
												}

											}
, 											{
												"box" : 												{
													"comment" : "",
													"id" : "obj-5",
													"index" : 3,
													"maxclass" : "outlet",
													"numinlets" : 1,
													"numoutlets" : 0,
													"patching_rect" : [ 324.266666666666708, 473.0, 30.0, 30.0 ]
												}

											}
, 											{
												"box" : 												{
													"comment" : "",
													"id" : "obj-4",
													"index" : 2,
													"maxclass" : "outlet",
													"numinlets" : 1,
													"numoutlets" : 0,
													"patching_rect" : [ 170.266666666666708, 473.0, 30.0, 30.0 ]
												}

											}
, 											{
												"box" : 												{
													"comment" : "",
													"id" : "obj-3",
													"index" : 1,
													"maxclass" : "outlet",
													"numinlets" : 1,
													"numoutlets" : 0,
													"patching_rect" : [ 79.0, 473.0, 30.0, 30.0 ]
												}

											}
, 											{
												"box" : 												{
													"comment" : "",
													"id" : "obj-2",
													"index" : 1,
													"maxclass" : "inlet",
													"numinlets" : 0,
													"numoutlets" : 1,
													"outlettype" : [ "" ],
													"patching_rect" : [ 48.0, 18.0, 30.0, 30.0 ]
												}

											}
 ],
										"lines" : [ 											{
												"patchline" : 												{
													"destination" : [ "obj-12", 0 ],
													"source" : [ "obj-11", 0 ]
												}

											}
, 											{
												"patchline" : 												{
													"destination" : [ "obj-6", 0 ],
													"source" : [ "obj-12", 0 ]
												}

											}
, 											{
												"patchline" : 												{
													"destination" : [ "obj-11", 0 ],
													"midpoints" : [ 57.5, 137.0, 57.5, 137.0 ],
													"source" : [ "obj-15", 0 ]
												}

											}
, 											{
												"patchline" : 												{
													"destination" : [ "obj-4", 0 ],
													"source" : [ "obj-17", 0 ]
												}

											}
, 											{
												"patchline" : 												{
													"destination" : [ "obj-5", 0 ],
													"source" : [ "obj-18", 0 ]
												}

											}
, 											{
												"patchline" : 												{
													"destination" : [ "obj-20", 0 ],
													"midpoints" : [ 124.5, 349.0, 179.766666666666708, 349.0 ],
													"source" : [ "obj-19", 1 ]
												}

											}
, 											{
												"patchline" : 												{
													"destination" : [ "obj-7", 0 ],
													"source" : [ "obj-19", 0 ]
												}

											}
, 											{
												"patchline" : 												{
													"destination" : [ "obj-8", 0 ],
													"source" : [ "obj-2", 0 ]
												}

											}
, 											{
												"patchline" : 												{
													"destination" : [ "obj-17", 0 ],
													"source" : [ "obj-20", 0 ]
												}

											}
, 											{
												"patchline" : 												{
													"destination" : [ "obj-18", 0 ],
													"source" : [ "obj-20", 1 ]
												}

											}
, 											{
												"patchline" : 												{
													"destination" : [ "obj-3", 0 ],
													"midpoints" : [ 406.666677333333382, 460.0, 88.5, 460.0 ],
													"order" : 2,
													"source" : [ "obj-52", 0 ]
												}

											}
, 											{
												"patchline" : 												{
													"destination" : [ "obj-4", 0 ],
													"midpoints" : [ 406.666677333333382, 460.0, 179.766666666666708, 460.0 ],
													"order" : 1,
													"source" : [ "obj-52", 0 ]
												}

											}
, 											{
												"patchline" : 												{
													"destination" : [ "obj-5", 0 ],
													"midpoints" : [ 406.666677333333382, 460.0, 333.766666666666708, 460.0 ],
													"order" : 0,
													"source" : [ "obj-52", 0 ]
												}

											}
, 											{
												"patchline" : 												{
													"destination" : [ "obj-19", 0 ],
													"source" : [ "obj-6", 1 ]
												}

											}
, 											{
												"patchline" : 												{
													"destination" : [ "obj-3", 0 ],
													"source" : [ "obj-7", 0 ]
												}

											}
, 											{
												"patchline" : 												{
													"destination" : [ "obj-15", 0 ],
													"order" : 1,
													"source" : [ "obj-8", 0 ]
												}

											}
, 											{
												"patchline" : 												{
													"destination" : [ "obj-52", 0 ],
													"midpoints" : [ 265.5, 105.0, 406.666677333333382, 105.0 ],
													"source" : [ "obj-8", 4 ]
												}

											}
, 											{
												"patchline" : 												{
													"destination" : [ "obj-52", 0 ],
													"midpoints" : [ 213.5, 105.0, 406.666677333333382, 105.0 ],
													"source" : [ "obj-8", 3 ]
												}

											}
, 											{
												"patchline" : 												{
													"destination" : [ "obj-52", 0 ],
													"midpoints" : [ 161.5, 105.0, 406.666677333333382, 105.0 ],
													"source" : [ "obj-8", 2 ]
												}

											}
, 											{
												"patchline" : 												{
													"destination" : [ "obj-52", 0 ],
													"midpoints" : [ 109.5, 105.0, 406.666677333333382, 105.0 ],
													"source" : [ "obj-8", 1 ]
												}

											}
, 											{
												"patchline" : 												{
													"destination" : [ "obj-52", 0 ],
													"midpoints" : [ 57.5, 105.0, 406.666677333333382, 105.0 ],
													"order" : 0,
													"source" : [ "obj-8", 0 ]
												}

											}
 ],
										"styles" : [ 											{
												"name" : "SDTpackage",
												"default" : 												{
													"fontname" : [ "Lato" ],
													"fontsize" : [ 12.0 ]
												}
,
												"parentstyle" : "",
												"multi" : 0
											}
 ]
									}
,
									"patching_rect" : [ 162.5, 627.0, 85.0, 22.0 ],
									"saved_object_attributes" : 									{
										"description" : "",
										"digest" : "",
										"globalpatchername" : "",
										"tags" : ""
									}
,
									"text" : "p text"
								}

							}
, 							{
								"box" : 								{
									"id" : "obj-27",
									"maxclass" : "newobj",
									"numinlets" : 1,
									"numoutlets" : 1,
									"outlettype" : [ "" ],
									"patching_rect" : [ 172.5, 356.730767786502838, 103.0, 22.0 ],
									"text" : "prepend FFTease"
								}

							}
, 							{
								"box" : 								{
									"button" : 1,
									"contrastactivetab" : 0,
									"fontname" : "Lato",
									"fontsize" : 14.0,
									"htabcolor" : [ 0.207843137254902, 0.207843137254902, 0.207843137254902, 1.0 ],
									"id" : "obj-20",
									"maxclass" : "tab",
									"numinlets" : 1,
									"numoutlets" : 3,
									"outlettype" : [ "int", "", "" ],
									"parameter_enable" : 0,
									"patching_rect" : [ 47.5, 143.0, 144.0, 151.0 ],
									"presentation" : 1,
									"presentation_rect" : [ 17.0, 126.0, 458.5, 624.0 ],
									"tabcolor" : [ 0.164705882352941, 0.164705882352941, 0.164705882352941, 1.0 ],
									"tabs" : [ "fftz.bthresher~", "fftz.burrow~", "fftz.cavoc27~", "fftz.cavoc~", "fftz.centerring~", "fftz.codepend~", "fftz.cross~", "fftz.dentist~", "fftz.disarrain~", "fftz.disarray~", "fftz.drown~", "fftz.enrich~", "fftz.ether~", "fftz.leaker~", "fftz.loopsea~", "fftz.mindwarp~", "fftz.morphine~", "fftz.multyq~", "fftz.pileup~", "fftz.pvcompand~", "fftz.pvgrain~", "fftz.pvharm~", "fftz.pvoc~", "fftz.pvtuner~", "fftz.pvwarpb~", "fftz.pvwarp~", "fftz.reanimator~", "fftz.resent~", "fftz.residency_buffer~", "fftz.residency~", "fftz.schmear~", "fftz.scrape~", "fftz.shapee~", "fftz.swinger~", "fftz.taint~", "fftz.thresher~", "fftz.vacancy~", "fftz.xsyn~" ]
								}

							}
, 							{
								"box" : 								{
									"id" : "obj-4",
									"maxclass" : "comment",
									"numinlets" : 1,
									"numoutlets" : 0,
									"patching_rect" : [ 60.0, 120.0, 291.0, 20.0 ],
									"presentation" : 1,
									"presentation_rect" : [ 17.0, 83.0, 291.0, 20.0 ],
									"text" : "A set of objects for spectral processing and synthesis"
								}

							}
, 							{
								"box" : 								{
									"fontname" : "Arial Rounded MT Bold",
									"fontsize" : 48.0,
									"id" : "obj-2",
									"maxclass" : "comment",
									"numinlets" : 1,
									"numoutlets" : 0,
									"patching_rect" : [ 60.0, 52.0, 205.0, 62.0 ],
									"presentation" : 1,
									"presentation_rect" : [ 17.0, 16.0, 260.0, 62.0 ],
									"text" : "FFTease"
								}

							}
 ],
						"lines" : [ 							{
								"patchline" : 								{
									"destination" : [ "obj-27", 0 ],
									"source" : [ "obj-20", 2 ]
								}

							}
, 							{
								"patchline" : 								{
									"destination" : [ "obj-56", 0 ],
									"midpoints" : [ 119.5, 324.865383893251419, 75.192302942276001, 324.865383893251419 ],
									"source" : [ "obj-20", 1 ]
								}

							}
, 							{
								"patchline" : 								{
									"destination" : [ "obj-33", 0 ],
									"source" : [ "obj-27", 0 ]
								}

							}
, 							{
								"patchline" : 								{
									"destination" : [ "obj-47", 0 ],
									"source" : [ "obj-33", 0 ]
								}

							}
, 							{
								"patchline" : 								{
									"destination" : [ "obj-48", 0 ],
									"source" : [ "obj-33", 1 ]
								}

							}
, 							{
								"patchline" : 								{
									"destination" : [ "obj-50", 0 ],
									"source" : [ "obj-33", 2 ]
								}

							}
 ]
					}
,
					"patching_rect" : [ 320.0, 286.0, 134.0, 22.0 ],
					"saved_object_attributes" : 					{
						"description" : "",
						"digest" : "",
						"globalpatchername" : "",
						"tags" : ""
					}
,
					"text" : "p \"All FFTease Objects\""
				}

			}
, 			{
				"box" : 				{
					"id" : "obj-2",
					"maxclass" : "newobj",
					"numinlets" : 0,
					"numoutlets" : 0,
					"patcher" : 					{
						"fileversion" : 1,
						"appversion" : 						{
							"major" : 9,
							"minor" : 0,
							"revision" : 0,
							"architecture" : "x64",
							"modernui" : 1
						}
,
						"classnamespace" : "box",
						"rect" : [ 227.0, 202.0, 876.0, 829.0 ],
						"bglocked" : 0,
						"openinpresentation" : 1,
						"default_fontsize" : 12.0,
						"default_fontface" : 0,
						"default_fontname" : "Arial",
						"gridonopen" : 2,
						"gridsize" : [ 15.0, 15.0 ],
						"gridsnaponopen" : 1,
						"objectsnaponopen" : 1,
						"statusbarvisible" : 2,
						"toolbarvisible" : 1,
						"lefttoolbarpinned" : 0,
						"toptoolbarpinned" : 0,
						"righttoolbarpinned" : 0,
						"bottomtoolbarpinned" : 0,
						"toolbars_unpinned_last_save" : 0,
						"tallnewobj" : 0,
						"boxanimatetime" : 200,
						"enablehscroll" : 1,
						"enablevscroll" : 1,
						"devicewidth" : 0.0,
						"description" : "",
						"digest" : "",
						"tags" : "",
						"style" : "",
						"subpatcher_template" : "ShowGrid_template",
						"showontab" : 1,
						"assistshowspatchername" : 0,
						"boxes" : [ 							{
								"box" : 								{
									"id" : "obj-31",
									"maxclass" : "newobj",
									"numinlets" : 1,
									"numoutlets" : 1,
									"outlettype" : [ "bang" ],
									"patching_rect" : [ 684.0, 597.0, 58.0, 22.0 ],
									"text" : "loadbang"
								}

							}
, 							{
								"box" : 								{
									"id" : "obj-30",
									"maxclass" : "message",
									"numinlets" : 2,
									"numoutlets" : 1,
									"outlettype" : [ "" ],
									"patching_rect" : [ 684.0, 624.0, 85.0, 22.0 ],
									"text" : "presentation 1"
								}

							}
, 							{
								"box" : 								{
									"id" : "obj-28",
									"maxclass" : "newobj",
									"numinlets" : 1,
									"numoutlets" : 2,
									"outlettype" : [ "", "" ],
									"patching_rect" : [ 684.0, 653.0, 67.0, 22.0 ],
									"save" : [ "#N", "thispatcher", ";", "#Q", "end", ";" ],
									"text" : "thispatcher"
								}

							}
, 							{
								"box" : 								{
									"id" : "obj-27",
									"maxclass" : "textbutton",
									"numinlets" : 1,
									"numoutlets" : 3,
									"outlettype" : [ "", "", "int" ],
									"outputmode" : 0,
									"parameter_enable" : 0,
									"patching_rect" : [ 213.0, 726.0, 100.0, 20.0 ],
									"presentation" : 1,
									"presentation_rect" : [ 28.0, 684.0, 100.0, 20.0 ],
									"text" : "fftz.pvharm~",
									"texton" : "fftz.pvharm~"
								}

							}
, 							{
								"box" : 								{
									"id" : "obj-26",
									"maxclass" : "textbutton",
									"numinlets" : 1,
									"numoutlets" : 3,
									"outlettype" : [ "", "", "int" ],
									"outputmode" : 0,
									"parameter_enable" : 0,
									"patching_rect" : [ 24.0, 779.0, 100.0, 20.0 ],
									"presentation" : 1,
									"presentation_rect" : [ 28.0, 758.0, 100.0, 20.0 ],
									"text" : "fftz.pvwarpb~",
									"texton" : "fftz.pvwarpb~"
								}

							}
, 							{
								"box" : 								{
									"id" : "obj-25",
									"maxclass" : "textbutton",
									"numinlets" : 1,
									"numoutlets" : 3,
									"outlettype" : [ "", "", "int" ],
									"outputmode" : 0,
									"parameter_enable" : 0,
									"patching_rect" : [ 24.0, 755.0, 100.0, 20.0 ],
									"presentation" : 1,
									"presentation_rect" : [ 28.0, 733.0, 100.0, 20.0 ],
									"text" : "fftz.pvwarp~",
									"texton" : "fftz.pvwarp~"
								}

							}
, 							{
								"box" : 								{
									"id" : "obj-23",
									"maxclass" : "textbutton",
									"numinlets" : 1,
									"numoutlets" : 3,
									"outlettype" : [ "", "", "int" ],
									"outputmode" : 0,
									"parameter_enable" : 0,
									"patching_rect" : [ 24.0, 731.0, 100.0, 20.0 ],
									"presentation" : 1,
									"presentation_rect" : [ 28.0, 709.0, 100.0, 20.0 ],
									"text" : "fftz.pvtuner~",
									"texton" : "fftz.pvtuner~"
								}

							}
, 							{
								"box" : 								{
									"id" : "obj-22",
									"maxclass" : "textbutton",
									"numinlets" : 1,
									"numoutlets" : 3,
									"outlettype" : [ "", "", "int" ],
									"outputmode" : 0,
									"parameter_enable" : 0,
									"patching_rect" : [ 24.0, 706.0, 100.0, 20.0 ],
									"presentation" : 1,
									"presentation_rect" : [ 28.0, 659.0, 100.0, 20.0 ],
									"text" : "fftz.pvoc~",
									"texton" : "fftz.pvoc~"
								}

							}
, 							{
								"box" : 								{
									"id" : "obj-21",
									"maxclass" : "textbutton",
									"numinlets" : 1,
									"numoutlets" : 3,
									"outlettype" : [ "", "", "int" ],
									"outputmode" : 0,
									"parameter_enable" : 0,
									"patching_rect" : [ 24.0, 681.0, 100.0, 20.0 ],
									"presentation" : 1,
									"presentation_rect" : [ 28.0, 634.0, 100.0, 20.0 ],
									"text" : "fftz.mindwarp~",
									"texton" : "fftz.mindwarp~"
								}

							}
, 							{
								"box" : 								{
									"id" : "obj-20",
									"maxclass" : "textbutton",
									"numinlets" : 1,
									"numoutlets" : 3,
									"outlettype" : [ "", "", "int" ],
									"outputmode" : 0,
									"parameter_enable" : 0,
									"patching_rect" : [ 24.0, 655.0, 100.0, 20.0 ],
									"presentation" : 1,
									"presentation_rect" : [ 28.0, 610.0, 100.0, 20.0 ],
									"text" : "fftz.enrich~",
									"texton" : "fftz.enrich~"
								}

							}
, 							{
								"box" : 								{
									"id" : "obj-19",
									"maxclass" : "textbutton",
									"numinlets" : 1,
									"numoutlets" : 3,
									"outlettype" : [ "", "", "int" ],
									"outputmode" : 0,
									"parameter_enable" : 0,
									"patching_rect" : [ 24.0, 630.0, 100.0, 20.0 ],
									"presentation" : 1,
									"presentation_rect" : [ 28.0, 585.0, 100.0, 20.0 ],
									"text" : "fftz.centerring~",
									"texton" : "fftz.centerring~"
								}

							}
, 							{
								"box" : 								{
									"id" : "obj-18",
									"maxclass" : "comment",
									"numinlets" : 1,
									"numoutlets" : 0,
									"patching_rect" : [ 24.0, 604.0, 263.0, 20.0 ],
									"presentation" : 1,
									"presentation_rect" : [ 17.0, 557.0, 263.0, 20.0 ],
									"text" : "live frequency-based processors (single source)"
								}

							}
, 							{
								"box" : 								{
									"id" : "obj-16",
									"maxclass" : "textbutton",
									"numinlets" : 1,
									"numoutlets" : 3,
									"outlettype" : [ "", "", "int" ],
									"outputmode" : 0,
									"parameter_enable" : 0,
									"patching_rect" : [ 24.0, 571.962059620595937, 100.0, 20.0 ],
									"presentation" : 1,
									"presentation_rect" : [ 28.0, 529.0, 100.0, 20.0 ],
									"text" : "fftz.thresher~",
									"texton" : "fftz.thresher~"
								}

							}
, 							{
								"box" : 								{
									"id" : "obj-15",
									"maxclass" : "textbutton",
									"numinlets" : 1,
									"numoutlets" : 3,
									"outlettype" : [ "", "", "int" ],
									"outputmode" : 0,
									"parameter_enable" : 0,
									"patching_rect" : [ 24.0, 327.0, 100.0, 20.0 ],
									"presentation" : 1,
									"presentation_rect" : [ 28.0, 278.0, 100.0, 20.0 ],
									"text" : "fftz.bthresher~",
									"texton" : "fftz.bthresher~"
								}

							}
, 							{
								"box" : 								{
									"id" : "obj-14",
									"maxclass" : "textbutton",
									"numinlets" : 1,
									"numoutlets" : 3,
									"outlettype" : [ "", "", "int" ],
									"outputmode" : 0,
									"parameter_enable" : 0,
									"patching_rect" : [ 24.0, 547.465853658536389, 100.0, 20.0 ],
									"presentation" : 1,
									"presentation_rect" : [ 28.0, 504.0, 100.0, 20.0 ],
									"text" : "fftz.scrape~",
									"texton" : "fftz.scrape~"
								}

							}
, 							{
								"box" : 								{
									"id" : "obj-13",
									"maxclass" : "textbutton",
									"numinlets" : 1,
									"numoutlets" : 3,
									"outlettype" : [ "", "", "int" ],
									"outputmode" : 0,
									"parameter_enable" : 0,
									"patching_rect" : [ 24.0, 522.969647696476841, 100.0, 20.0 ],
									"presentation" : 1,
									"presentation_rect" : [ 28.0, 478.0, 100.0, 20.0 ],
									"text" : "fftz.schmear~",
									"texton" : "fftz.schmear~"
								}

							}
, 							{
								"box" : 								{
									"id" : "obj-12",
									"maxclass" : "textbutton",
									"numinlets" : 1,
									"numoutlets" : 3,
									"outlettype" : [ "", "", "int" ],
									"outputmode" : 0,
									"parameter_enable" : 0,
									"patching_rect" : [ 24.0, 498.473441734417179, 100.0, 20.0 ],
									"presentation" : 1,
									"presentation_rect" : [ 28.0, 453.0, 100.0, 20.0 ],
									"text" : "fftz.pvcompand~",
									"texton" : "fftz.pvcompand~"
								}

							}
, 							{
								"box" : 								{
									"id" : "obj-11",
									"maxclass" : "textbutton",
									"numinlets" : 1,
									"numoutlets" : 3,
									"outlettype" : [ "", "", "int" ],
									"outputmode" : 0,
									"parameter_enable" : 0,
									"patching_rect" : [ 24.0, 473.977235772357631, 100.0, 20.0 ],
									"presentation" : 1,
									"presentation_rect" : [ 28.0, 428.0, 100.0, 20.0 ],
									"text" : "fftz.pileup~",
									"texton" : "fftz.pileup~"
								}

							}
, 							{
								"box" : 								{
									"id" : "obj-10",
									"maxclass" : "textbutton",
									"numinlets" : 1,
									"numoutlets" : 3,
									"outlettype" : [ "", "", "int" ],
									"outputmode" : 0,
									"parameter_enable" : 0,
									"patching_rect" : [ 24.0, 449.481029810297969, 100.0, 20.0 ],
									"presentation" : 1,
									"presentation_rect" : [ 28.0, 403.0, 100.0, 20.0 ],
									"text" : "fftz.multyq~",
									"texton" : "fftz.multyq~"
								}

							}
, 							{
								"box" : 								{
									"id" : "obj-9",
									"maxclass" : "textbutton",
									"numinlets" : 1,
									"numoutlets" : 3,
									"outlettype" : [ "", "", "int" ],
									"outputmode" : 0,
									"parameter_enable" : 0,
									"patching_rect" : [ 24.0, 424.98482384823842, 100.0, 20.0 ],
									"presentation" : 1,
									"presentation_rect" : [ 28.0, 378.0, 100.0, 20.0 ],
									"text" : "fftz.drown~",
									"texton" : "fftz.drown~"
								}

							}
, 							{
								"box" : 								{
									"id" : "obj-8",
									"maxclass" : "textbutton",
									"numinlets" : 1,
									"numoutlets" : 3,
									"outlettype" : [ "", "", "int" ],
									"outputmode" : 0,
									"parameter_enable" : 0,
									"patching_rect" : [ 24.0, 400.488617886178815, 100.0, 20.0 ],
									"presentation" : 1,
									"presentation_rect" : [ 28.0, 353.0, 100.0, 20.0 ],
									"text" : "fftz.disarray~",
									"texton" : "fftz.disarray~"
								}

							}
, 							{
								"box" : 								{
									"id" : "obj-7",
									"maxclass" : "textbutton",
									"numinlets" : 1,
									"numoutlets" : 3,
									"outlettype" : [ "", "", "int" ],
									"outputmode" : 0,
									"parameter_enable" : 0,
									"patching_rect" : [ 24.0, 375.99241192411921, 100.0, 20.0 ],
									"presentation" : 1,
									"presentation_rect" : [ 28.0, 328.0, 100.0, 20.0 ],
									"text" : "fftz.disarrain~",
									"texton" : "fftz.disarrain~"
								}

							}
, 							{
								"box" : 								{
									"id" : "obj-6",
									"maxclass" : "newobj",
									"numinlets" : 1,
									"numoutlets" : 1,
									"outlettype" : [ "" ],
									"patching_rect" : [ 510.0, 520.0, 51.0, 22.0 ],
									"text" : "pcontrol"
								}

							}
, 							{
								"box" : 								{
									"id" : "obj-5",
									"maxclass" : "newobj",
									"numinlets" : 1,
									"numoutlets" : 1,
									"outlettype" : [ "" ],
									"patching_rect" : [ 510.0, 490.0, 79.0, 22.0 ],
									"text" : "prepend help"
								}

							}
, 							{
								"box" : 								{
									"id" : "obj-3",
									"maxclass" : "textbutton",
									"numinlets" : 1,
									"numoutlets" : 3,
									"outlettype" : [ "", "", "int" ],
									"outputmode" : 0,
									"parameter_enable" : 0,
									"patching_rect" : [ 24.0, 351.496205962059605, 100.0, 20.0 ],
									"presentation" : 1,
									"presentation_rect" : [ 28.0, 303.0, 100.0, 20.0 ],
									"text" : "fftz.dentist~",
									"texton" : "fftz.dentist~"
								}

							}
, 							{
								"box" : 								{
									"id" : "obj-2",
									"maxclass" : "comment",
									"numinlets" : 1,
									"numoutlets" : 0,
									"patching_rect" : [ 24.0, 287.0, 263.0, 20.0 ],
									"presentation" : 1,
									"presentation_rect" : [ 17.0, 249.0, 263.0, 20.0 ],
									"text" : "live amplitude-based processors (single source)"
								}

							}
, 							{
								"box" : 								{
									"fontsize" : 22.0,
									"id" : "obj-4",
									"linecount" : 5,
									"maxclass" : "comment",
									"numinlets" : 1,
									"numoutlets" : 0,
									"patching_rect" : [ 17.0, 102.0, 755.0, 129.0 ],
									"presentation" : 1,
									"presentation_linecount" : 5,
									"presentation_rect" : [ 17.0, 83.0, 756.0, 129.0 ],
									"text" : "The Processors category is for single-input live processing, meaning that these objects can be applied directly to a single input, whether from a microphone, or playback from a soundfile. In this category are two sub-categories: the first modifies just the amplitudes of the spectrum, and the second modifies frequency content as well. "
								}

							}
, 							{
								"box" : 								{
									"fontface" : 1,
									"fontname" : "Arial Rounded MT Bold",
									"fontsize" : 48.0,
									"id" : "obj-24",
									"maxclass" : "comment",
									"numinlets" : 1,
									"numoutlets" : 0,
									"patching_rect" : [ 17.0, 10.0, 205.0, 62.0 ],
									"presentation" : 1,
									"presentation_rect" : [ 17.0, 16.0, 260.0, 62.0 ],
									"text" : "FFTease"
								}

							}
 ],
						"lines" : [ 							{
								"patchline" : 								{
									"destination" : [ "obj-5", 0 ],
									"source" : [ "obj-10", 1 ]
								}

							}
, 							{
								"patchline" : 								{
									"destination" : [ "obj-5", 0 ],
									"source" : [ "obj-11", 1 ]
								}

							}
, 							{
								"patchline" : 								{
									"destination" : [ "obj-5", 0 ],
									"source" : [ "obj-12", 1 ]
								}

							}
, 							{
								"patchline" : 								{
									"destination" : [ "obj-5", 0 ],
									"source" : [ "obj-13", 1 ]
								}

							}
, 							{
								"patchline" : 								{
									"destination" : [ "obj-5", 0 ],
									"source" : [ "obj-14", 1 ]
								}

							}
, 							{
								"patchline" : 								{
									"destination" : [ "obj-5", 0 ],
									"source" : [ "obj-15", 1 ]
								}

							}
, 							{
								"patchline" : 								{
									"destination" : [ "obj-5", 0 ],
									"source" : [ "obj-16", 1 ]
								}

							}
, 							{
								"patchline" : 								{
									"destination" : [ "obj-5", 0 ],
									"source" : [ "obj-19", 1 ]
								}

							}
, 							{
								"patchline" : 								{
									"destination" : [ "obj-5", 0 ],
									"source" : [ "obj-20", 1 ]
								}

							}
, 							{
								"patchline" : 								{
									"destination" : [ "obj-5", 0 ],
									"source" : [ "obj-21", 1 ]
								}

							}
, 							{
								"patchline" : 								{
									"destination" : [ "obj-5", 0 ],
									"source" : [ "obj-22", 1 ]
								}

							}
, 							{
								"patchline" : 								{
									"destination" : [ "obj-5", 0 ],
									"source" : [ "obj-23", 1 ]
								}

							}
, 							{
								"patchline" : 								{
									"destination" : [ "obj-5", 0 ],
									"source" : [ "obj-25", 1 ]
								}

							}
, 							{
								"patchline" : 								{
									"destination" : [ "obj-5", 0 ],
									"source" : [ "obj-26", 1 ]
								}

							}
, 							{
								"patchline" : 								{
									"destination" : [ "obj-5", 0 ],
									"source" : [ "obj-27", 1 ]
								}

							}
, 							{
								"patchline" : 								{
									"destination" : [ "obj-5", 0 ],
									"source" : [ "obj-3", 1 ]
								}

							}
, 							{
								"patchline" : 								{
									"destination" : [ "obj-28", 0 ],
									"source" : [ "obj-30", 0 ]
								}

							}
, 							{
								"patchline" : 								{
									"destination" : [ "obj-30", 0 ],
									"source" : [ "obj-31", 0 ]
								}

							}
, 							{
								"patchline" : 								{
									"destination" : [ "obj-6", 0 ],
									"source" : [ "obj-5", 0 ]
								}

							}
, 							{
								"patchline" : 								{
									"destination" : [ "obj-5", 0 ],
									"source" : [ "obj-7", 1 ]
								}

							}
, 							{
								"patchline" : 								{
									"destination" : [ "obj-5", 0 ],
									"source" : [ "obj-8", 1 ]
								}

							}
, 							{
								"patchline" : 								{
									"destination" : [ "obj-5", 0 ],
									"source" : [ "obj-9", 1 ]
								}

							}
 ]
					}
,
					"patching_rect" : [ 187.0, 131.0, 87.0, 22.0 ],
					"saved_object_attributes" : 					{
						"description" : "",
						"digest" : "",
						"globalpatchername" : "",
						"tags" : ""
					}
,
					"text" : "p Processors"
				}

			}
, 			{
				"box" : 				{
					"id" : "obj-1",
					"maxclass" : "newobj",
					"numinlets" : 0,
					"numoutlets" : 0,
					"patcher" : 					{
						"fileversion" : 1,
						"appversion" : 						{
							"major" : 9,
							"minor" : 0,
							"revision" : 0,
							"architecture" : "x64",
							"modernui" : 1
						}
,
						"classnamespace" : "box",
						"rect" : [ 0.0, 26.0, 876.0, 829.0 ],
						"bglocked" : 0,
						"openinpresentation" : 1,
						"default_fontsize" : 12.0,
						"default_fontface" : 0,
						"default_fontname" : "Arial",
						"gridonopen" : 2,
						"gridsize" : [ 15.0, 15.0 ],
						"gridsnaponopen" : 1,
						"objectsnaponopen" : 1,
						"statusbarvisible" : 2,
						"toolbarvisible" : 1,
						"lefttoolbarpinned" : 0,
						"toptoolbarpinned" : 0,
						"righttoolbarpinned" : 0,
						"bottomtoolbarpinned" : 0,
						"toolbars_unpinned_last_save" : 0,
						"tallnewobj" : 0,
						"boxanimatetime" : 200,
						"enablehscroll" : 1,
						"enablevscroll" : 1,
						"devicewidth" : 0.0,
						"description" : "",
						"digest" : "",
						"tags" : "",
						"style" : "",
						"subpatcher_template" : "ShowGrid_template",
						"showontab" : 1,
						"assistshowspatchername" : 0,
						"boxes" : [ 							{
								"box" : 								{
									"id" : "obj-14",
									"linecount" : 2,
									"maxclass" : "message",
									"numinlets" : 2,
									"numoutlets" : 1,
									"outlettype" : [ "" ],
									"patching_rect" : [ 445.0, 762.0, 375.0, 35.0 ],
									"text" : ";\rmax launchbrowser https://github.com/ericlyon/FFTease3.0-MaxMSP"
								}

							}
, 							{
								"box" : 								{
									"bgcolor" : [ 0.462745098039216, 0.070588235294118, 0.070588235294118, 1.0 ],
									"id" : "obj-13",
									"maxclass" : "button",
									"numinlets" : 1,
									"numoutlets" : 1,
									"outlettype" : [ "bang" ],
									"parameter_enable" : 0,
									"patching_rect" : [ 542.0, 680.0, 24.0, 24.0 ],
									"presentation" : 1,
									"presentation_rect" : [ 16.0, 670.948134092346663, 24.0, 24.0 ]
								}

							}
, 							{
								"box" : 								{
									"fontsize" : 14.0,
									"id" : "obj-7",
									"linecount" : 3,
									"maxclass" : "comment",
									"numinlets" : 1,
									"numoutlets" : 0,
									"patching_rect" : [ 70.0, 762.0, 165.0, 53.0 ],
									"presentation" : 1,
									"presentation_rect" : [ 45.0, 671.948134092346663, 450.0, 22.0 ],
									"text" : "<- Click for the Github repository, if you'd like to paw through the code."
								}

							}
, 							{
								"box" : 								{
									"fontsize" : 14.0,
									"id" : "obj-11",
									"linecount" : 2,
									"maxclass" : "comment",
									"numinlets" : 1,
									"numoutlets" : 0,
									"patching_rect" : [ 207.0, 566.0, 443.0, 38.0 ],
									"presentation" : 1,
									"presentation_rect" : [ 45.0, 748.922201138519995, 458.0, 22.0 ],
									"text" : "<- Click to learn about Hiromi Okamura, who created the FFTease logo."
								}

							}
, 							{
								"box" : 								{
									"bgcolor" : [ 0.462745098039216, 0.070588235294118, 0.070588235294118, 1.0 ],
									"id" : "obj-12",
									"maxclass" : "button",
									"numinlets" : 1,
									"numoutlets" : 1,
									"outlettype" : [ "bang" ],
									"parameter_enable" : 0,
									"patching_rect" : [ 176.0, 572.0, 24.0, 24.0 ],
									"presentation" : 1,
									"presentation_rect" : [ 16.0, 747.922201138519995, 24.0, 24.0 ]
								}

							}
, 							{
								"box" : 								{
									"id" : "obj-10",
									"linecount" : 2,
									"maxclass" : "message",
									"numinlets" : 2,
									"numoutlets" : 1,
									"outlettype" : [ "" ],
									"patching_rect" : [ 176.0, 628.0, 261.0, 35.0 ],
									"text" : ";\rmax launchbrowser https://hiromiokumura.com/"
								}

							}
, 							{
								"box" : 								{
									"fontsize" : 14.0,
									"id" : "obj-9",
									"linecount" : 2,
									"maxclass" : "comment",
									"numinlets" : 1,
									"numoutlets" : 0,
									"patching_rect" : [ 176.0, 351.0, 417.0, 38.0 ],
									"presentation" : 1,
									"presentation_rect" : [ 45.0, 594.974067046173332, 739.0, 22.0 ],
									"text" : "<- Click to see the first paper on FFTease, presented at the 2000 International Computer Music Conference in Berlin."
								}

							}
, 							{
								"box" : 								{
									"bgcolor" : [ 0.462745098039216, 0.070588235294118, 0.070588235294118, 1.0 ],
									"id" : "obj-8",
									"maxclass" : "button",
									"numinlets" : 1,
									"numoutlets" : 1,
									"outlettype" : [ "bang" ],
									"parameter_enable" : 0,
									"patching_rect" : [ 69.0, 741.0, 24.0, 24.0 ],
									"presentation" : 1,
									"presentation_rect" : [ 16.0, 593.974067046173218, 24.0, 24.0 ]
								}

							}
, 							{
								"box" : 								{
									"id" : "obj-6",
									"linecount" : 2,
									"maxclass" : "message",
									"numinlets" : 2,
									"numoutlets" : 1,
									"outlettype" : [ "" ],
									"patching_rect" : [ 77.5, 770.0, 263.0, 35.0 ],
									"text" : ";\rmax launchbrowser https://tinyurl.com/4zrd65ax"
								}

							}
, 							{
								"box" : 								{
									"fontsize" : 22.0,
									"id" : "obj-4",
									"linecount" : 10,
									"maxclass" : "comment",
									"numinlets" : 1,
									"numoutlets" : 0,
									"patching_rect" : [ -1.0, 240.0, 756.0, 252.0 ],
									"presentation" : 1,
									"presentation_linecount" : 10,
									"presentation_rect" : [ 16.0, 288.0, 768.0, 252.0 ],
									"text" : "FFTease is a collection of objects designed to facilitate spectral sound processing in Max and Pd. The collection was designed by Eric Lyon and Christopher Penrose in 1999, and has been maintained by Lyon since 2003. The externals of FFTease can produce traditional phase vocoder effects, cross-synthesize two sounds, mix sounds together in the spectral domain, adjust the formant structure of vocal sounds, scrub a sound without changing its pitch, apply user-specified scales to tune a sound to specific frequencies, algorithmically warp the spectrum of a sound, and more. Check out the remaning tabs of this Overview for the categories of processing available in FFTease."
								}

							}
, 							{
								"box" : 								{
									"autofit" : 1,
									"forceaspect" : 1,
									"id" : "obj-2",
									"maxclass" : "fpic",
									"numinlets" : 1,
									"numoutlets" : 1,
									"outlettype" : [ "jit_matrix" ],
									"patching_rect" : [ -1.0, -2.0, 240.0, 240.0 ],
									"pic" : "/Users/eric/Documents/GitHub/FFTease3.0-MaxMSP/icon.png",
									"presentation" : 1,
									"presentation_rect" : [ 294.5, 31.0, 240.0, 240.0 ]
								}

							}
 ],
						"lines" : [ 							{
								"patchline" : 								{
									"destination" : [ "obj-10", 0 ],
									"source" : [ "obj-12", 0 ]
								}

							}
, 							{
								"patchline" : 								{
									"destination" : [ "obj-14", 0 ],
									"source" : [ "obj-13", 0 ]
								}

							}
, 							{
								"patchline" : 								{
									"destination" : [ "obj-6", 0 ],
									"source" : [ "obj-8", 0 ]
								}

							}
 ]
					}
,
					"patching_rect" : [ 137.0, 97.0, 127.0, 22.0 ],
					"saved_object_attributes" : 					{
						"description" : "",
						"digest" : "",
						"globalpatchername" : "",
						"tags" : ""
					}
,
					"text" : "p \"FFTease Overview\""
				}

			}
 ],
		"lines" : [  ],
		"dependency_cache" : [ 			{
				"name" : "FFTease.txt",
				"bootpath" : "~/Documents/GitHub/FFTease3.0-MaxMSP/extras",
				"patcherrelativepath" : ".",
				"type" : "TEXT",
				"implicit" : 1
			}
, 			{
				"name" : "icon.png",
				"bootpath" : "~/Documents/GitHub/FFTease3.0-MaxMSP",
				"patcherrelativepath" : "..",
				"type" : "PNG",
				"implicit" : 1
			}
 ],
		"autosave" : 0
	}

}
